<svg width="14" height="14" viewBox="0 0 14 14" fill="none" xmlns="http://www.w3.org/2000/svg">
<path d="M7.00017 6.33325C6.82336 6.33325 6.65379 6.40349 6.52876 6.52851C6.40374 6.65354 6.3335 6.82311 6.3335 6.99992V9.66659C6.3335 9.8434 6.40374 10.013 6.52876 10.138C6.65379 10.263 6.82336 10.3333 7.00017 10.3333C7.17698 10.3333 7.34655 10.263 7.47157 10.138C7.59659 10.013 7.66683 9.8434 7.66683 9.66659V6.99992C7.66683 6.82311 7.59659 6.65354 7.47157 6.52851C7.34655 6.40349 7.17698 6.33325 7.00017 6.33325ZM7.2535 3.71992C7.09119 3.65324 6.90914 3.65324 6.74683 3.71992C6.665 3.75165 6.59024 3.79922 6.52683 3.85992C6.46795 3.92472 6.42059 3.99913 6.38683 4.07992C6.34951 4.15904 6.33125 4.2458 6.3335 4.33325C6.33299 4.42099 6.34981 4.50796 6.38299 4.58919C6.41616 4.67041 6.46504 4.74429 6.52683 4.80659C6.59163 4.86547 6.66604 4.91282 6.74683 4.94659C6.84783 4.98808 6.95748 5.00413 7.06613 4.99333C7.17479 4.98252 7.27912 4.9452 7.36997 4.88463C7.46083 4.82406 7.53541 4.74211 7.58717 4.64597C7.63893 4.54982 7.66629 4.44244 7.66683 4.33325C7.66438 4.15674 7.59532 3.98767 7.4735 3.85992C7.4101 3.79922 7.33533 3.75165 7.2535 3.71992ZM7.00017 0.333252C5.68162 0.333252 4.39269 0.724245 3.29636 1.45679C2.20004 2.18933 1.34555 3.23052 0.840969 4.4487C0.336385 5.66687 0.204362 7.00731 0.461597 8.30052C0.718832 9.59373 1.35377 10.7816 2.28612 11.714C3.21847 12.6463 4.40636 13.2813 5.69956 13.5385C6.99277 13.7957 8.33322 13.6637 9.55139 13.1591C10.7696 12.6545 11.8108 11.8 12.5433 10.7037C13.2758 9.60739 13.6668 8.31846 13.6668 6.99992C13.6668 6.12444 13.4944 5.25753 13.1594 4.4487C12.8243 3.63986 12.3333 2.90493 11.7142 2.28587C11.0952 1.66682 10.3602 1.17575 9.55139 0.840722C8.74255 0.50569 7.87565 0.333252 7.00017 0.333252ZM7.00017 12.3333C5.94533 12.3333 4.91419 12.0205 4.03712 11.4344C3.16006 10.8484 2.47648 10.0154 2.07281 9.0409C1.66914 8.06636 1.56352 6.994 1.76931 5.95944C1.9751 4.92487 2.48305 3.97456 3.22893 3.22868C3.97481 2.4828 4.92512 1.97485 5.95968 1.76906C6.99425 1.56328 8.06661 1.66889 9.04114 2.07256C10.0157 2.47623 10.8486 3.15982 11.4347 4.03688C12.0207 4.91394 12.3335 5.94509 12.3335 6.99992C12.3335 8.41441 11.7716 9.77096 10.7714 10.7712C9.77121 11.7713 8.41465 12.3333 7.00017 12.3333Z" fill="#6435E9"/>
</svg>
