<svg width="32" height="32" viewBox="0 0 32 32" fill="none" xmlns="http://www.w3.org/2000/svg">
<path d="M10.1027 2.48508C10.1027 2.48508 10.6631 1.25207 11.8869 0.75302C12.237 0.610254 12.6149 0.550498 13.0002 0.550498C13.495 0.550498 13.9855 0.666073 14.4186 0.884659C14.51 0.930727 14.6017 0.982358 14.6936 1.03455C14.7896 1.08906 14.9273 1.16725 15.006 1.19576C15.0237 1.18463 15.049 1.168 15.0851 1.14288C15.1915 1.06849 15.2961 0.989858 15.4009 0.911225C15.8441 0.578938 16.3464 0.202272 17.0084 0.0580063C17.1851 0.0195021 17.3678 0 17.5514 0C18.3771 0 19.2223 0.398106 19.8127 1.06505C19.8832 1.14475 19.9516 1.22907 20.0199 1.31396C20.1108 1.42672 20.2628 1.61549 20.3279 1.64324C20.3554 1.64987 20.4512 1.65143 20.5211 1.65262C20.6295 1.65437 20.7524 1.65643 20.89 1.67375C21.5083 1.75169 22.0089 2.11892 22.2164 2.62166C22.9647 2.94563 23.6904 3.33149 24.376 3.7701C24.8872 4.09707 25.3787 4.45374 25.848 4.83853C26.3177 5.22357 26.7649 5.63605 27.1867 6.07304C27.6085 6.50996 28.0048 6.97139 28.3727 7.45444C29.0961 8.40436 29.7121 9.43847 30.1916 10.5324C30.7317 11.7648 31.1047 13.0697 31.3052 14.4001C31.4295 15.2247 31.4876 16.0594 31.4777 16.8934C31.4682 17.6961 31.395 18.498 31.258 19.289C31.1032 20.1826 30.8687 21.0625 30.5554 21.9136C30.3228 22.5454 30.0475 23.1614 29.7331 23.7567C28.5408 26.015 26.7849 27.9277 24.6737 29.3593C23.6137 30.0781 22.4656 30.6667 21.2583 31.0954C19.517 31.7138 17.6674 32.0124 15.8206 31.9998C14.5444 31.991 13.27 31.8315 12.0401 31.4942C9.65807 30.84 7.41119 29.6796 5.58749 28.0024C3.90994 26.4595 2.53785 24.5779 1.66788 22.4655C1.65381 22.4335 1.64069 22.4005 1.62806 22.3671C1.33059 21.6331 1.0875 20.8616 0.910546 20.0866C0.900294 20.0476 0.891668 20.0086 0.88448 19.9697C0.661268 18.967 0.510814 17.9413 0.521941 16.912C0.556819 13.6842 1.46098 10.428 3.37357 7.80067C4.11533 6.78162 4.97355 5.84701 5.93178 5.02786C6.42315 4.60782 6.94058 4.21821 7.48064 3.8628C7.48058 3.86261 9.23408 2.75011 10.1027 2.48508Z" fill="white"/>
<path d="M5.53647 26.7993C5.53647 26.7993 5.36314 26.6219 5.30958 26.5654C5.22613 26.4774 5.14399 26.3883 5.0628 26.2982C4.67363 25.8668 4.3104 25.4124 3.97674 24.9368C3.96668 24.9209 3.95511 24.9065 3.94505 24.8906C3.91767 24.8517 3.89029 24.8128 3.86435 24.7739C3.20178 23.7801 2.63653 22.7117 2.22693 21.5885C1.79607 20.408 1.54204 19.1995 1.42115 17.9508C1.42059 17.9451 1.42002 17.9394 1.41946 17.9336C1.41084 17.8443 1.40359 17.7549 1.39783 17.6655C1.3177 16.4253 1.38352 15.1771 1.6213 13.9565C1.62561 13.9276 1.63136 13.8988 1.63861 13.8699C1.73662 13.4784 1.81213 13.0839 1.92433 12.6954C2.03803 12.3015 2.17211 11.9154 2.31612 11.5317C2.32481 11.5087 2.33344 11.4842 2.34206 11.4611C2.61022 10.7764 2.93019 10.1147 3.29635 9.48477C3.30936 9.46315 3.32086 9.44296 3.33386 9.42133C3.6914 8.80589 4.09901 8.21764 4.54618 7.66408C4.56206 7.64389 4.57787 7.62513 4.59231 7.60638C5.05724 7.04263 5.55729 6.51032 6.09729 6.01777C6.11604 6.00046 6.13479 5.9832 6.15492 5.96733C6.72723 5.45127 7.34136 4.97984 7.99149 4.56036C8.01456 4.54448 8.03619 4.53011 8.05925 4.51567C8.74976 4.07456 9.48059 3.6882 10.2446 3.36529C10.2691 3.35523 10.2951 3.34367 10.321 3.3336C11.1138 3.0035 11.9413 2.7411 12.799 2.5537C12.8278 2.54652 12.8567 2.5407 12.8855 2.53639C13.2964 2.447 13.713 2.37637 14.1354 2.32449C14.1613 2.32018 14.1872 2.3173 14.2132 2.31443C14.3371 2.29855 14.464 2.28561 14.5894 2.27405C14.6283 2.27117 14.6672 2.26686 14.7062 2.26542C14.9368 2.24523 15.1689 2.22936 15.4024 2.22073C15.4298 2.21929 15.4586 2.21785 15.4861 2.21785C15.649 2.2121 15.8133 2.20923 15.9776 2.20923C16.1333 2.20923 16.289 2.2121 16.4432 2.21642C16.4706 2.21785 16.4994 2.21785 16.5269 2.21929C17.3889 2.25098 18.2322 2.35624 19.0496 2.5292C19.0784 2.53495 19.1058 2.5407 19.1346 2.54795C19.7098 2.67334 20.2735 2.83336 20.8213 3.02369C20.8443 3.03088 20.866 3.03813 20.8876 3.04676C22.0138 3.44193 23.0911 3.97923 24.0862 4.63774C24.3345 4.80207 24.5777 4.97397 24.8155 5.15311C25.7529 5.8595 26.6074 6.68609 27.3519 7.59344C28.1156 8.52436 28.7611 9.55466 29.2677 10.647C29.5034 11.1553 29.7093 11.6776 29.884 12.21C30.2737 13.3973 30.5046 14.6451 30.5723 15.8924C30.5865 16.154 30.5936 16.416 30.5936 16.6781C30.5936 17.8846 30.4417 19.094 30.1412 20.2625C29.8643 21.3391 29.458 22.3766 28.943 23.3611C28.7153 23.7965 28.4644 24.2174 28.1934 24.6239C27.8159 25.1902 27.3991 25.7301 26.9464 26.2384L17.616 27.2475L12.5872 29.2018C12.5873 29.2019 5.53647 26.7993 5.53647 26.7993Z" fill="#FF8476"/>
<g opacity="0.44">
<path d="M17.7141 2.3147C17.73 2.3637 17.7444 2.41271 17.7602 2.46171C18.1408 3.66828 18.5329 4.91523 20.2023 6.23138C21.873 7.54896 23.1761 7.63978 24.4375 7.72773C25.6081 7.80992 26.8147 7.89493 28.3196 8.97468C28.288 8.91986 28.2533 8.86654 28.2173 8.81322C28.2159 8.81322 28.2159 8.81322 28.2159 8.81178C26.7628 7.81855 25.585 7.73642 24.4419 7.65709C23.1921 7.56915 21.899 7.47832 20.247 6.17518C18.595 4.87204 18.2058 3.63515 17.8295 2.44015C17.818 2.40121 17.805 2.36233 17.792 2.32482C17.766 2.32045 17.74 2.31757 17.7141 2.3147Z" fill="#FADED3"/>
<path d="M15.4004 2.21943C15.7637 2.85081 15.9568 3.46781 16.1485 4.07469C16.5276 5.27983 16.9197 6.52677 18.5906 7.84436C20.2599 9.16194 21.5631 9.25276 22.8244 9.34071C24.0742 9.42865 25.3673 9.51804 27.0193 10.8212C28.6728 12.1258 29.0605 13.3612 29.4368 14.5562C29.6862 15.3491 29.9399 16.1593 30.5597 16.9954C30.5612 16.955 30.5626 16.9146 30.5626 16.8728C29.9903 16.0728 29.7453 15.2958 29.5059 14.5346C29.1268 13.3295 28.7347 12.0826 27.0639 10.765C25.3946 9.44884 24.09 9.35658 22.8301 9.26864C21.5788 9.18213 20.2872 9.09131 18.6337 7.78816C16.9817 6.48502 16.5925 5.24813 16.2162 4.05313C16.0288 3.452 15.8357 2.84081 15.4839 2.21655C15.4566 2.21799 15.4278 2.21799 15.4004 2.21943Z" fill="#FADED3"/>
<path d="M12.7926 2.54823C13.8882 3.63372 14.2169 4.67453 14.5354 5.68795C14.9146 6.89308 15.3066 8.14003 16.9774 9.45761C18.6467 10.7752 19.9513 10.866 21.2113 10.954C22.4625 11.0419 23.7542 11.1313 25.4062 12.4344C27.0597 13.7376 27.4474 14.9745 27.8237 16.1695C28.1999 17.3602 28.5863 18.5913 30.2023 19.8873C30.2094 19.8613 30.2153 19.8354 30.2196 19.8094C28.644 18.5337 28.2619 17.3213 27.8929 16.1479C27.5137 14.9428 27.1217 13.6958 25.4509 12.3782C23.7816 11.0607 22.4783 10.9698 21.217 10.8819C19.9672 10.7954 18.6741 10.7046 17.0221 9.40142C15.3686 8.09821 14.9795 6.86139 14.6046 5.66638C14.286 4.6544 13.9588 3.61503 12.8776 2.52954C12.8488 2.53529 12.8214 2.54104 12.7926 2.54823Z" fill="#FADED3"/>
<path d="M10.2339 3.35835C10.3233 3.42323 10.4141 3.49243 10.5049 3.5645C12.1569 4.86908 12.5461 6.10453 12.9224 7.30103C13.3015 8.50616 13.6951 9.75311 15.3644 11.0707C17.0337 12.3868 18.3383 12.4791 19.5997 12.567C20.8495 12.6536 22.1411 12.7444 23.7946 14.0475C25.4466 15.3507 25.8358 16.5875 26.2121 17.7826C26.5912 18.9877 26.9833 20.2347 28.6527 21.5523C28.9424 21.7801 29.2206 21.9718 29.4902 22.1318C29.5002 22.1102 29.5089 22.0871 29.5176 22.064C29.2538 21.9069 28.9813 21.7195 28.6973 21.496C27.0454 20.1929 26.6561 18.956 26.2798 17.761C25.9007 16.5544 25.5086 15.3075 23.8393 13.9913C22.1686 12.6737 20.8654 12.5829 19.604 12.495C18.3542 12.407 17.0611 12.3176 15.4091 11.0145C13.7571 9.70992 13.3679 8.47447 12.9916 7.27797C12.6125 6.07284 12.2189 4.82589 10.5496 3.50831C10.4689 3.44486 10.3896 3.38435 10.3103 3.32666C10.2843 3.33672 10.2598 3.34685 10.2339 3.35835Z" fill="#FADED3"/>
<path d="M7.97351 4.55058C8.26761 4.72066 8.5732 4.92681 8.8918 5.17765C10.5452 6.48079 10.933 7.71767 11.3093 8.91274C11.6899 10.1193 12.082 11.3663 13.7513 12.6838C15.4221 14 16.7253 14.0908 17.9866 14.1788C19.2364 14.2667 20.5295 14.3575 22.1816 15.6607C23.8336 16.9638 24.2228 18.1993 24.5991 19.3957C24.9782 20.6008 25.3703 21.8478 27.0411 23.1654C27.563 23.5777 28.0488 23.8689 28.51 24.0779C28.523 24.0577 28.5359 24.0361 28.5475 24.0159C28.0891 23.8083 27.6047 23.5185 27.0858 23.1077C25.4323 21.8046 25.0431 20.5691 24.6683 19.3741C24.2877 18.1675 23.8956 16.9206 22.2263 15.6044C20.5569 14.2868 19.2523 14.196 17.991 14.1081C16.7412 14.0201 15.4481 13.9293 13.7961 12.6261C12.144 11.323 11.7549 10.0876 11.3786 8.89112C10.9995 7.68598 10.6074 6.43904 8.93655 5.12145C8.62664 4.87643 8.32967 4.67459 8.04277 4.50732C8.01964 4.52176 7.99658 4.53614 7.97351 4.55058Z" fill="#FADED3"/>
<path d="M6.07922 6.00946C6.45839 6.20405 6.85768 6.45776 7.2786 6.7908C8.9321 8.09394 9.32127 9.33083 9.69756 10.5258C10.0767 11.7324 10.4688 12.9794 12.1381 14.2955C13.8089 15.6131 15.112 15.7039 16.3734 15.7918C17.6232 15.8798 18.9163 15.9692 20.5683 17.2738C22.2204 18.5769 22.6095 19.8123 22.9858 21.0074C23.3649 22.2139 23.757 23.4609 25.4278 24.777C26.0895 25.2988 26.6935 25.6275 27.26 25.8409C27.2774 25.8207 27.2946 25.8019 27.309 25.7818C26.741 25.5713 26.1356 25.2441 25.4725 24.7208C23.8205 23.4176 23.4312 22.1822 23.055 20.9857C22.6759 19.7806 22.2838 18.5336 20.613 17.2161C18.9437 15.8999 17.6391 15.8077 16.3792 15.7197C15.1279 15.6332 13.8363 15.5424 12.1828 14.2392C10.5308 12.9361 10.1415 11.6992 9.76525 10.5042C9.38609 9.29764 8.99404 8.05212 7.32323 6.73454C6.90663 6.40588 6.51165 6.1536 6.13542 5.95752C6.11673 5.97483 6.09798 5.99071 6.07922 6.00946Z" fill="#FADED3"/>
<path d="M4.52673 7.65425C4.88859 7.84452 5.26769 8.08817 5.66698 8.40389C7.31898 9.70704 7.70821 10.9439 8.0845 12.1389C8.4636 13.3441 8.85571 14.591 10.5265 15.9086C12.1958 17.2262 13.5005 17.317 14.7604 17.4049C16.0116 17.4929 17.3033 17.5823 18.9552 18.8854C20.6087 20.1886 20.9965 21.4254 21.3727 22.6204C21.7532 23.827 22.1454 25.074 23.8147 26.3901C24.4894 26.9235 25.1064 27.255 25.683 27.467C25.7032 27.4497 25.7234 27.4324 25.7436 27.4137C25.1626 27.2032 24.5413 26.8717 23.8595 26.334C22.2074 25.0308 21.8183 23.794 21.442 22.5989C21.0629 21.3938 20.6707 20.1468 18.9999 18.8292C17.3306 17.5116 16.0274 17.4208 14.7661 17.3329C13.5163 17.2464 12.2232 17.1555 10.5712 15.8524C8.91771 14.5493 8.52855 13.3124 8.15226 12.1174C7.77315 10.9108 7.38105 9.66384 5.71174 8.34626C5.31244 8.03198 4.93328 7.78695 4.57149 7.59668C4.55555 7.61531 4.53973 7.6355 4.52673 7.65425Z" fill="#FADED3"/>
<path d="M3.27405 9.47067C3.52489 9.6235 3.78435 9.80364 4.05395 10.0155C5.70594 11.3201 6.09517 12.5556 6.47146 13.7521C6.85056 14.9572 7.24267 16.2042 8.91348 17.5217C10.5828 18.8393 11.8874 18.9301 13.1488 19.0181C14.3986 19.1046 15.6902 19.1954 17.3436 20.4986C18.9956 21.8017 19.3849 23.0386 19.7611 24.2337C20.1403 25.4388 20.5323 26.6857 22.2017 28.0033C22.7408 28.4286 23.241 28.7255 23.7138 28.936C23.7398 28.9216 23.7643 28.9057 23.7888 28.8899C23.3073 28.6808 22.7956 28.381 22.2463 27.9471C20.5943 26.6439 20.2051 25.407 19.8288 24.212C19.4496 23.0054 19.0576 21.7585 17.3883 20.4423C15.7175 19.1247 14.4143 19.0339 13.153 18.946C11.9032 18.858 10.6101 18.7686 8.95811 17.4655C7.30611 16.1609 6.91688 14.9255 6.54066 13.7304C6.16155 12.5239 5.76801 11.2769 4.09864 9.95935C3.82617 9.74458 3.56383 9.56293 3.31011 9.40723C3.29711 9.42885 3.28555 9.44904 3.27405 9.47067Z" fill="#FADED3"/>
<path d="M2.29236 11.5148C2.34136 11.5508 2.39181 11.5897 2.44087 11.6286C4.09287 12.9318 4.4821 14.1687 4.85839 15.3637C5.23893 16.5702 5.63104 17.8172 7.30041 19.1348C8.96971 20.4509 10.2743 20.5417 11.5357 20.6311C12.7855 20.7176 14.0786 20.8085 15.7306 22.1116C17.3826 23.4147 17.7718 24.6502 18.1481 25.8466C18.5272 27.0518 18.9193 28.2987 20.5901 29.6163C20.8438 29.8153 21.0875 29.9868 21.3253 30.1338C21.3541 30.1237 21.3815 30.1122 21.409 30.1021C21.1595 29.9507 20.9015 29.7705 20.6334 29.56C18.9814 28.2555 18.5922 27.02 18.2174 25.825C17.8368 24.6184 17.4447 23.3715 15.7753 22.0553C14.106 20.7378 12.8014 20.6469 11.5401 20.559C10.2902 20.471 8.99715 20.3802 7.34516 19.0771C5.69317 17.7739 5.30394 16.5385 4.92765 15.342C4.54848 14.1369 4.15644 12.89 2.48563 11.5724C2.42944 11.5291 2.37462 11.4859 2.31986 11.4456C2.30967 11.4686 2.30105 11.4917 2.29236 11.5148Z" fill="#FADED3"/>
<path d="M1.59753 13.9322C2.61958 14.9846 2.93674 15.9951 3.24521 16.9768C3.62576 18.1834 4.01792 19.4303 5.68723 20.7465C7.35798 22.0641 8.66118 22.1549 9.92251 22.2428C11.1723 22.3308 12.4654 22.4202 14.1175 23.7247C15.7695 25.0279 16.1587 26.2633 16.535 27.4583C16.8838 28.5669 17.2428 29.7115 18.5964 30.9094C18.6266 30.9037 18.657 30.8993 18.6872 30.8935C17.3134 29.6927 16.953 28.5482 16.6042 27.4367C16.2251 26.2316 15.8315 24.9846 14.1622 23.6671C12.4929 22.3509 11.1882 22.2601 9.92832 22.1707C8.67706 22.0842 7.38542 21.9934 5.73199 20.6902C4.07993 19.3871 3.69076 18.1502 3.31447 16.9551C2.99875 15.9533 2.6759 14.9225 1.61491 13.8472C1.60766 13.876 1.60185 13.9034 1.59753 13.9322Z" fill="#FADED3"/>
<path d="M15.8853 31.1458C15.8753 31.1472 15.8652 31.1458 15.8551 31.1458C15.8349 31.1472 15.8161 31.1458 15.796 31.1458C15.3534 30.438 15.1357 29.749 14.9224 29.0714C14.8517 28.8479 14.7811 28.6231 14.7018 28.3968C14.3572 27.4121 13.8484 26.3973 12.5048 25.3364C12.3304 25.1994 12.1603 25.0755 11.9945 24.9644C11.81 24.839 11.6298 24.7309 11.4525 24.6343C11.4424 24.6286 11.4309 24.6228 11.4208 24.617C10.7043 24.2307 10.0528 24.0563 9.43145 23.964H9.43001C9.39107 23.9583 9.35363 23.9525 9.31468 23.9481C8.97302 23.902 8.64005 23.8789 8.30995 23.8559C7.05 23.7679 5.74542 23.6771 4.07611 22.3595C2.40537 21.0419 2.01326 19.795 1.63409 18.5899C1.56634 18.3722 1.49714 18.1545 1.41932 17.9354C1.41932 17.934 1.41932 17.934 1.41932 17.934C1.40632 17.8994 1.39482 17.8633 1.38182 17.8287C1.37463 17.7451 1.36881 17.6615 1.3645 17.5779C1.37607 17.6067 1.38757 17.637 1.39763 17.6658C1.51439 17.9685 1.60665 18.2698 1.70179 18.5682C2.07802 19.7633 2.46725 21.0001 4.12068 22.3033C5.77273 23.6064 7.06575 23.6972 8.31564 23.7837C8.65586 23.8068 9.00034 23.8313 9.355 23.8803C9.41845 23.8889 9.48189 23.8976 9.54527 23.9091C10.1334 24.0043 10.749 24.1772 11.4222 24.5362C11.4352 24.542 11.4467 24.5478 11.4597 24.5564C11.6024 24.6328 11.7465 24.7178 11.895 24.813C12.1069 24.9485 12.3246 25.1028 12.5495 25.28C13.8742 26.3237 14.3947 27.3241 14.7435 28.2943C14.8344 28.548 14.9136 28.8003 14.9915 29.0497C15.2064 29.7331 15.427 30.4308 15.8853 31.1458Z" fill="#FADED3"/>
<path d="M13.4664 30.9397C13.439 30.9354 13.4131 30.931 13.3856 30.9252C13.3842 30.9224 13.3842 30.9209 13.3828 30.918C13.3597 30.8402 13.3338 30.7623 13.3107 30.6845C13.0354 29.8081 12.7514 28.91 11.9686 27.9787C11.9441 27.9485 11.9182 27.9182 11.8908 27.8879C11.6212 27.578 11.294 27.2666 10.8933 26.9494C10.0687 26.3007 9.33639 25.9519 8.65163 25.7558C8.62713 25.7486 8.60263 25.7414 8.57812 25.7356C7.97268 25.5684 7.40756 25.5194 6.85112 25.479H6.84968C6.79924 25.4761 6.7488 25.4718 6.69829 25.469C5.83482 25.4098 4.9526 25.3464 3.94493 24.8909C3.93049 24.8851 3.91755 24.8794 3.90311 24.8721C3.87573 24.8332 3.84979 24.7943 3.82385 24.7554C3.83685 24.7626 3.85123 24.7684 3.86423 24.7741C4.90647 25.2714 5.81607 25.3349 6.70267 25.3969C6.78049 25.4026 6.85693 25.4084 6.93476 25.4142H6.93619C7.471 25.4531 8.01594 25.505 8.59831 25.665C8.62281 25.6708 8.64732 25.678 8.67326 25.6852C9.36377 25.8841 10.1062 26.2359 10.9379 26.8932C11.3041 27.1815 11.6083 27.467 11.8649 27.7495C11.8937 27.7798 11.9211 27.8115 11.9471 27.8418C12.7976 28.8148 13.0916 29.7504 13.3785 30.6629C13.4059 30.7523 13.4347 30.8431 13.4636 30.9325C13.465 30.9354 13.465 30.9368 13.4664 30.9397Z" fill="#FADED3"/>
</g>
<path d="M12.4227 22.6657L12.4444 19.1253L13.5226 19.0446L13.958 19.0128H13.9637L18.6589 18.6611H18.6603L18.7699 18.6525L18.8477 18.6467L18.8592 18.7202L18.8751 18.8226L19.0525 19.9758L19.237 21.1766L19.4344 22.4596L18.5945 25.5174L14.3133 26.022L12.4227 22.6657Z" fill="#FFB9C2"/>
<path d="M19.0524 19.9763C18.7151 20.3943 18.3158 20.7533 17.8372 21.0042C17.35 21.2608 16.8036 21.392 16.2558 21.4553C15.2683 21.5707 14.2377 21.464 13.341 21.0315C13.0181 20.8744 12.7139 20.6726 12.4443 20.4333V19.1258L18.8477 18.6472L19.0524 19.9763Z" fill="#331510"/>
<path d="M12.2439 30.6681C12.5716 30.7529 12.9022 30.826 13.235 30.888C15.4646 31.3035 17.7684 31.1983 19.9563 30.6032L22.4571 25.6516L19.4373 22.4743C19.4373 22.4743 19.4287 22.4642 19.4258 22.4671C19.361 22.5204 19.2946 22.5738 19.2297 22.6271C19.211 22.6415 19.1922 22.6573 19.1736 22.6732C18.6186 23.1259 18.0636 23.5785 17.5071 24.0297C17.4884 24.0456 17.4697 24.0614 17.4495 24.0773C16.9551 24.4795 16.4606 24.8831 15.9661 25.2853C15.7614 25.134 15.5582 24.984 15.3534 24.8326C15.2698 24.7707 15.1862 24.7087 15.1026 24.6467C14.2622 24.0268 13.4217 23.4055 12.5828 22.7842C12.5828 22.7828 12.5813 22.7828 12.5813 22.7828C12.528 22.7438 12.4761 22.705 12.4228 22.666C12.4127 22.6703 12.3983 22.6761 12.3795 22.6833L8.91687 26.0824L12.2439 30.6681Z" fill="#FADED3"/>
<path d="M14.5298 28.8534C14.5178 28.8534 14.5064 28.8474 14.4998 28.8372L11.3836 24.1015C11.3727 24.0849 11.3773 24.0625 11.3938 24.0517C11.4106 24.0407 11.4328 24.0454 11.4437 24.0619L14.5222 28.7402L15.9327 25.272C15.9379 25.259 15.9502 25.2503 15.9642 25.2495C15.9791 25.2507 15.9913 25.2563 15.9978 25.2685L17.7711 28.574L20.7071 23.9151C20.718 23.8983 20.74 23.8935 20.7569 23.904C20.7737 23.9146 20.7788 23.9369 20.7681 23.9537L17.7991 28.6649C17.7924 28.6757 17.7809 28.6837 17.7673 28.6816C17.7545 28.6812 17.7429 28.674 17.7368 28.6626L15.9705 25.3701L14.5632 28.8309C14.5581 28.8434 14.5466 28.8519 14.5332 28.8532C14.5321 28.8533 14.531 28.8534 14.5298 28.8534Z" fill="#331510"/>
<path d="M16.0326 26.9647C16.1647 26.9647 16.2718 26.8576 16.2718 26.7255C16.2718 26.5934 16.1647 26.4863 16.0326 26.4863C15.9005 26.4863 15.7935 26.5934 15.7935 26.7255C15.7935 26.8576 15.9005 26.9647 16.0326 26.9647Z" fill="#331510"/>
<path d="M16.0326 27.7254C16.1647 27.7254 16.2718 27.6184 16.2718 27.4863C16.2718 27.3542 16.1647 27.2471 16.0326 27.2471C15.9005 27.2471 15.7935 27.3542 15.7935 27.4863C15.7935 27.6184 15.9005 27.7254 16.0326 27.7254Z" fill="#331510"/>
<path d="M16.272 28.2961C16.272 28.4282 16.1648 28.5353 16.0328 28.5353C15.9007 28.5353 15.7936 28.4282 15.7936 28.2961C15.7936 28.1639 15.9007 28.0569 16.0328 28.0569C16.1648 28.0569 16.272 28.1639 16.272 28.2961Z" fill="#331510"/>
<path d="M12.1442 29.1106C12.2015 29.6308 12.2382 30.1511 12.244 30.6681C10.6601 30.2579 9.14771 29.5735 7.78931 28.6621C7.38202 28.3888 6.98847 28.0951 6.61068 27.7823C6.5203 27.7074 5.53638 26.799 5.53638 26.799C5.95942 26.288 6.41372 25.8086 6.94534 25.4092C7.47684 25.01 8.05565 24.6788 8.6424 24.3686C9.75846 23.7786 10.9114 23.288 12.0753 22.803C12.094 22.7944 12.1142 22.7872 12.1315 22.78C12.1964 22.754 12.2512 22.7324 12.2973 22.7151C12.254 22.803 12.1906 22.891 12.1243 22.9919C11.9297 23.286 11.7452 23.5987 11.6184 23.9318C11.372 24.5475 11.4601 25.1331 11.5835 25.7609C11.7977 26.8538 12.0196 27.982 12.1442 29.1106Z" fill="#7EA8C5"/>
<path d="M12.4227 22.6373V22.6661C12.4227 22.6661 12.4126 22.6805 12.3939 22.705C12.2829 22.8579 11.8706 23.433 11.6183 23.9318C11.5693 24.0269 11.5275 24.1177 11.4929 24.2028C11.4698 24.2648 11.4511 24.3225 11.4381 24.3758C11.4294 24.4148 11.4237 24.4681 11.4223 24.5359C11.4208 24.5604 11.4208 24.5877 11.4208 24.6166C11.4294 25.2379 11.6688 26.668 11.8648 27.7491C11.8749 27.7966 11.8821 27.8428 11.8907 27.8875C12.0104 28.5319 12.1084 29.0263 12.1243 29.1027C12.1257 29.1099 12.1257 29.1128 12.1257 29.1128C12.1257 29.1128 12.0853 29.133 12.0118 29.1675C11.7235 29.3045 10.9321 29.675 10.1825 29.9633C9.78308 29.7927 9.39291 29.6009 9.01062 29.395C8.90004 29.3354 8.79009 29.2749 8.68046 29.2136C8.52225 29.1252 8.36674 29.0319 8.21341 28.9354C8.20622 28.9311 8.19897 28.9282 8.19322 28.9225C8.13559 28.0662 8.23503 26.9172 8.57813 25.7352C8.58388 25.7121 8.59114 25.6876 8.59832 25.6645C8.70359 25.3085 8.83185 24.951 8.98468 24.5978C9.06544 24.4118 9.15045 24.2374 9.24127 24.0759C9.24558 24.0672 9.24989 24.0586 9.25427 24.0514C9.27446 24.0154 9.29465 23.9808 9.31484 23.9477C9.32784 23.9246 9.34078 23.903 9.35522 23.8799C9.8194 23.1202 10.3787 22.6373 10.892 22.3302C10.9265 22.3086 10.9597 22.2899 10.9957 22.2712C11.7742 21.8344 12.4281 21.7998 12.4281 21.7998L12.4227 22.6373Z" fill="#7EA8C5"/>
<path d="M9.48336 29.6763C9.47217 29.6763 9.46105 29.671 9.45405 29.661C9.44255 29.6449 9.4463 29.6223 9.46255 29.6108C9.60075 29.5123 9.72676 29.3728 9.83778 29.2499C9.87347 29.2105 9.90753 29.1726 9.94016 29.1382C10.5949 28.4495 11.3638 28.7506 12.03 29.1362L12.0568 29.1522C12.0866 29.1695 12.1155 29.1867 12.1446 29.2044C12.1616 29.2149 12.1669 29.237 12.1565 29.254C12.146 29.271 12.1239 29.2763 12.1069 29.2659C12.0783 29.2482 12.0496 29.2314 12.0203 29.2143L11.9936 29.1985C11.3521 28.8271 10.6127 28.5353 9.99254 29.188C9.96017 29.2219 9.92654 29.2592 9.89128 29.2982C9.77765 29.4239 9.64894 29.5664 9.50424 29.6695C9.49793 29.674 9.49074 29.6763 9.48336 29.6763Z" fill="#FADED3"/>
<path d="M8.39076 29.0811C8.37639 29.0811 8.3627 29.0723 8.35726 29.0581C7.98616 28.1084 8.24869 27.0141 8.54928 25.9744C8.57085 25.8981 8.59404 25.8215 8.61716 25.7449L8.63885 25.674C8.80137 25.1364 8.99296 24.5942 9.20785 24.0625L9.21492 24.0448C9.21535 24.0425 9.21604 24.0404 9.21692 24.0385C9.22198 24.0269 9.22667 24.0153 9.23142 24.0038C9.23604 23.9923 9.24079 23.9808 9.24567 23.9694C9.25386 23.9508 9.27542 23.943 9.29311 23.9507C9.31137 23.9588 9.31974 23.98 9.3118 23.9982C9.30693 24.0091 9.30261 24.02 9.29811 24.031C9.29368 24.0416 9.28936 24.0524 9.28461 24.0632C9.2843 24.0649 9.28374 24.0664 9.2833 24.0678L9.27467 24.0894C9.06053 24.619 8.86982 25.1594 8.70774 25.6953L8.68605 25.7661C8.66304 25.842 8.64017 25.9182 8.6186 25.9944C8.32132 27.0223 8.06142 28.1033 8.42427 29.032C8.43158 29.0505 8.42239 29.0713 8.40383 29.0786C8.39952 29.0802 8.39508 29.0811 8.39076 29.0811Z" fill="#FADED3"/>
<path d="M26.9463 26.238C26.5225 25.7738 26.0727 25.3472 25.6157 24.9766C24.9007 24.3971 23.7057 23.8306 22.5308 23.3592C22.2022 23.228 21.8793 23.1055 21.5679 22.9916C21.5391 22.9815 21.5102 22.97 21.4814 22.9598C20.6468 22.6571 19.9087 22.4222 19.4762 22.2881C19.5096 22.2985 19.4983 22.4937 19.5093 22.5291C19.5459 22.6471 19.6417 22.7608 19.7082 22.864C19.8639 23.1054 20.0281 23.3438 20.135 23.6122C20.4254 24.3416 20.239 25.2328 20.1725 25.9934C20.0386 27.5275 19.8399 29.0606 19.9562 30.603C19.9562 30.603 24.1281 29.705 26.9463 26.238Z" fill="#7EA8C5"/>
<path d="M19.2369 21.1768C19.6219 21.2215 20.3758 21.4117 21.1571 21.9538C21.1903 21.9768 21.2248 22.0013 21.258 22.0258C21.6962 22.3459 22.1388 22.7784 22.528 23.3593L22.5323 23.3636C22.5337 23.3665 22.5352 23.3694 22.5366 23.3737C22.6044 23.4718 22.6678 23.5741 22.7312 23.6822V23.6837C22.773 23.7557 22.8148 23.8292 22.8551 23.9057C23.2631 24.6769 23.5543 25.4799 23.7446 26.2396V26.241C23.7561 26.2799 23.7648 26.3188 23.7749 26.3563V26.3578C23.994 27.2732 24.0704 28.115 24.0372 28.7493C23.9031 28.8358 23.7676 28.9224 23.6307 29.0045C23.4418 29.1198 23.2516 29.2308 23.0569 29.3375C22.822 29.4673 22.5827 29.5898 22.339 29.7051C21.4597 29.463 20.4261 29.0781 20.0715 28.9411C19.9908 28.9109 19.9446 28.8935 19.9446 28.8935C19.9446 28.8935 19.9446 28.8935 19.9446 28.8921C19.9446 28.8892 19.9461 28.8849 19.9461 28.8762C19.9691 28.686 20.1666 26.9892 20.2618 25.6126V25.6111C20.2661 25.5592 20.269 25.5087 20.2719 25.4583V25.4569C20.2935 25.1483 20.3064 24.8586 20.3107 24.6121V24.6106C20.3194 24.2618 20.3079 23.9979 20.2675 23.8797C20.2228 23.7485 20.1435 23.5943 20.044 23.4329C20.044 23.4314 20.0426 23.43 20.0412 23.4286C19.9013 23.1994 19.724 22.9543 19.5611 22.7438L19.4371 22.5233L19.4256 22.467L19.2369 21.1768Z" fill="#7EA8C5"/>
<path d="M23.0571 29.3752C23.0558 29.3752 23.0544 29.3752 23.0529 29.3751C22.7667 29.3437 22.5101 29.1017 22.3041 28.9072C22.2618 28.8674 22.2214 28.8292 22.1828 28.7948C21.4803 28.1661 20.7321 28.5314 20.093 28.9721C20.0676 28.9907 20.0396 29.0097 20.0133 29.0272C20.0018 29.0362 19.9896 29.0456 19.9756 29.0548C19.9582 29.0662 19.9349 29.0617 19.9231 29.044C19.9116 29.0266 19.9165 29.003 19.9339 28.9915C19.9462 28.9834 19.9569 28.9752 19.969 28.9657C19.9967 28.9472 20.0238 28.9288 20.0492 28.9102C20.7137 28.4523 21.4917 28.0744 22.2332 28.7383C22.2722 28.7732 22.3132 28.8118 22.3559 28.8521C22.5538 29.0388 22.8002 29.2712 23.0613 29.2997C23.082 29.302 23.097 29.3207 23.0948 29.3416C23.0926 29.3608 23.0763 29.3752 23.0571 29.3752Z" fill="#FADED3"/>
<path d="M23.6309 29.0422C23.6236 29.0422 23.6161 29.04 23.6094 29.0355C23.5922 29.0237 23.5879 29.0002 23.5997 28.9829C23.6179 28.9562 23.6341 28.9291 23.6474 28.9023C23.6559 28.8887 23.6624 28.8769 23.6676 28.8664L23.6796 28.8395C23.9966 28.1815 24.0018 27.3857 23.6968 26.3336L23.6856 26.2962C23.677 26.2677 23.6686 26.2394 23.6587 26.2118C23.6578 26.2095 23.6573 26.2072 23.6569 26.2047C23.5601 25.8878 23.4499 25.5893 23.3548 25.3389C23.143 24.7744 22.9039 24.2152 22.644 23.677C22.598 23.5806 22.552 23.4858 22.5031 23.3909C22.5021 23.389 22.5006 23.3857 22.4993 23.3818C22.4979 23.38 22.4966 23.378 22.4956 23.376L22.4612 23.3056C22.4518 23.2869 22.4593 23.2642 22.478 23.2548C22.4966 23.2453 22.5193 23.2528 22.5288 23.2717L22.5603 23.3361C22.5627 23.3391 22.5649 23.3426 22.5663 23.3462C22.5666 23.347 22.5671 23.348 22.5673 23.3489C22.5691 23.3525 22.5708 23.3564 22.5726 23.3617C22.6195 23.4519 22.6658 23.5473 22.7122 23.6443C22.9729 24.1844 23.213 24.7456 23.4255 25.3123C23.5215 25.5647 23.6328 25.866 23.7306 26.1866C23.731 26.188 23.7313 26.1895 23.7316 26.1909C23.7412 26.2182 23.7496 26.2463 23.758 26.2746L23.7693 26.3119C24.0801 27.3837 24.0733 28.1966 23.7486 28.8708L23.7363 28.8982C23.7291 28.9128 23.7212 28.9269 23.7132 28.9396C23.7003 28.9659 23.6825 28.996 23.6621 29.0257C23.6548 29.0364 23.643 29.0422 23.6309 29.0422Z" fill="#FADED3"/>
<path d="M7.53576 11.8672C7.02927 11.7707 6.47933 11.8992 6.08373 12.2312C5.54285 12.6852 5.34571 13.4812 5.53192 14.1645C5.71812 14.8478 6.24781 15.4082 6.88331 15.7144C7.51882 16.0207 8.24971 16.0895 8.94891 16.0018C9.08912 15.9843 9.2382 15.956 9.33889 15.8564C9.41665 15.7795 9.45397 15.6707 9.47903 15.564C9.56904 15.1807 9.53254 14.7783 9.45903 14.3914C9.2442 13.2601 8.79333 12.1069 7.53576 11.8672Z" fill="#FFB9C2"/>
<path d="M22.6715 11.1778C23.171 11.0502 23.7278 11.1445 24.1432 11.4515C24.7111 11.8712 24.9571 12.6534 24.8134 13.3469C24.6698 14.0405 24.1757 14.6325 23.5604 14.9774C22.945 15.3223 22.2197 15.4361 21.5165 15.3919C21.3754 15.383 21.2249 15.3639 21.1182 15.2708C21.0358 15.1988 20.9919 15.0926 20.9603 14.9876C20.8468 14.6106 20.8584 14.2067 20.9078 13.816C21.0523 12.6736 21.4311 11.4947 22.6715 11.1778Z" fill="#FFB9C2"/>
<path d="M21.586 14.4667C21.5794 14.4669 21.5727 14.466 21.5661 14.4636C21.538 14.4535 21.5234 14.4226 21.5335 14.3944C22.0067 13.0766 23.0708 12.0028 24.38 11.5219C24.4077 11.5116 24.4391 11.526 24.4494 11.554C24.4597 11.582 24.4453 11.6131 24.4173 11.6234C23.1378 12.0933 22.0978 13.1429 21.6352 14.431C21.6275 14.4525 21.6076 14.4661 21.586 14.4667Z" fill="#331510"/>
<path d="M8.93909 15.32C8.91884 15.3206 8.89896 15.3098 8.88915 15.2906C8.24202 14.0218 7.11246 12.9991 5.79 12.4846C5.76212 12.4738 5.74837 12.4424 5.75918 12.4146C5.76993 12.3866 5.80125 12.3731 5.82913 12.3838C7.17603 12.9078 8.32646 13.9494 8.98547 15.2414C8.99904 15.2681 8.98841 15.3006 8.96191 15.3142C8.95459 15.3179 8.94678 15.3198 8.93909 15.32Z" fill="#331510"/>
<path d="M22.0432 11.2382C22.0432 11.2469 22.0418 11.257 22.0403 11.2671C21.8894 12.5188 21.6622 13.8066 21.4538 15.0525C21.448 15.0829 21.4437 15.1118 21.438 15.1422C21.4293 15.1927 21.4193 15.2434 21.4092 15.2939C20.8672 18.1933 19.5202 19.5953 15.9103 19.7399C14.7329 19.7875 13.5339 19.711 12.4025 19.3597C11.5801 19.1053 10.7377 18.7339 10.1497 18.0806C9.5171 17.381 9.30289 16.404 9.07718 15.505C9.06424 15.4514 9.04987 15.398 9.03693 15.3445C8.75658 14.2518 8.50212 12.9307 8.35691 11.5331C8.35548 11.5172 8.35404 11.5013 8.3526 11.4854C8.20309 10.027 8.17146 8.48918 8.34973 7.04528C8.4978 5.83983 9.00242 4.94373 9.67237 4.27885C9.67812 4.27303 9.68387 4.26728 9.68962 4.26153C11.6678 2.31751 15.0663 2.35801 15.0663 2.35801C16.8663 2.32045 18.4175 2.70055 19.602 3.39C19.6164 3.39869 19.6308 3.40738 19.6451 3.416C20.8039 4.09964 21.6046 5.08537 21.9295 6.26913C22.3193 7.68547 22.2631 9.42135 22.0432 11.2382Z" fill="#FFB9C2"/>
<path d="M12.6076 11.661C12.6142 12.0278 12.3237 12.3305 11.9589 12.3372C11.5941 12.3438 11.293 12.0518 11.2864 11.685C11.2797 11.3182 11.5702 11.0155 11.935 11.0089C12.2999 11.0023 12.601 11.2942 12.6076 11.661Z" fill="#331510"/>
<path d="M19.1402 11.5424C19.1469 11.9092 18.8564 12.2119 18.4916 12.2185C18.1267 12.2251 17.8256 11.9332 17.8191 11.5664C17.8125 11.1996 18.1029 10.8969 18.4677 10.8902C18.8325 10.8836 19.1336 11.1756 19.1402 11.5424Z" fill="#331510"/>
<path d="M17.3558 9.10889C17.208 9.29672 17.1344 9.52868 17.2436 9.7674C17.3302 9.95685 17.5325 10.0666 17.7332 10.1189C18.14 10.2251 18.578 10.2788 18.9977 10.264C19.3204 10.2526 19.8103 10.1887 19.9476 9.83915C20.0122 9.67426 19.9711 9.48487 19.8937 9.3256C19.7122 8.952 19.3479 8.71878 18.9512 8.63365C18.5742 8.55276 18.1542 8.59508 17.804 8.7586C17.6444 8.83311 17.4757 8.95649 17.3558 9.10889Z" fill="#FF5E5E"/>
<path d="M12.8875 9.22936C12.8981 9.2398 12.9085 9.25043 12.9185 9.26112C13.031 9.38057 13.1115 9.54021 13.1002 9.70429C13.0785 10.0183 12.7698 10.1823 12.5057 10.2675C11.9698 10.4404 11.2358 10.5543 10.6887 10.3588C10.5313 10.3025 10.3853 10.1897 10.3302 10.0312C10.2936 9.92581 10.2999 9.80968 10.3239 9.70073C10.4984 8.91027 11.5097 8.62098 12.2029 8.83176C12.4453 8.90545 12.7037 9.04816 12.8875 9.22936Z" fill="#FF5E5E"/>
<path d="M9.16181 12.2575C9.27933 11.9519 9.27476 11.6101 9.20488 11.2904C9.13519 10.9713 9.00236 10.6443 9.08724 10.3289C9.19707 9.92108 9.6288 9.68549 9.82339 9.31064C9.96478 9.03817 9.9654 8.6972 9.82495 8.42429C9.71881 8.21802 9.53398 8.03519 9.53104 7.80316C9.52779 7.54963 9.74338 7.34986 9.8207 7.1084C9.9419 6.72998 9.681 6.30537 9.31889 6.14173C8.95679 5.97809 8.53124 6.0269 8.15545 6.15611C7.67084 6.32275 7.22216 6.62822 6.95157 7.06339C6.68098 7.49856 6.61003 8.07019 6.83237 8.53193C6.91669 8.70701 7.04308 8.87628 7.03671 9.07055C7.03058 9.25701 6.90357 9.41346 6.80581 9.57236C6.63823 9.84482 6.54484 10.175 6.60872 10.4885C6.67267 10.8019 6.91576 11.0873 7.23041 11.1448C7.32993 11.163 7.44106 11.1622 7.51788 11.228C7.64233 11.3348 7.59589 11.5322 7.55858 11.6918C7.5212 11.8515 7.5417 12.0734 7.70209 12.1072C7.75047 12.1174 7.80035 12.1059 7.84948 12.1001C8.30178 12.0471 8.35172 12.4109 8.56 12.6766C8.7859 12.9647 9.06455 12.5104 9.16181 12.2575Z" fill="#FF5E5E"/>
<path d="M20.8571 5.94278C20.5233 6.24257 20.3461 6.75887 20.5141 7.18448C20.5865 7.36813 20.7197 7.54365 20.6933 7.74042C20.6635 7.96369 20.4421 8.10283 20.3602 8.31136C20.31 8.43906 20.3163 8.58226 20.3233 8.72009C20.3307 8.86429 20.3389 9.01243 20.3964 9.14364C20.5776 9.55774 21.1742 9.66338 21.2925 10.1018C21.3712 10.3939 21.1951 10.6861 21.1211 10.9795C21.0412 11.2965 21.0853 11.6458 21.2411 11.9302C21.313 12.0614 21.4138 12.1835 21.5493 12.236C21.6848 12.2885 21.8585 12.2518 21.9349 12.1234C22.008 12.0004 21.9754 11.8394 22.0138 11.7002C22.1074 11.3616 22.5299 11.3065 22.8359 11.1597C23.3624 10.907 23.6235 10.1769 23.385 9.62406C23.2598 9.33378 23.0146 9.06256 23.0677 8.74884C23.1165 8.46006 23.3943 8.29098 23.5858 8.07708C23.8777 7.75117 23.9796 7.23793 23.7956 6.83488C23.722 6.67393 23.6096 6.53666 23.4984 6.4014C22.8141 5.56906 21.7615 5.13057 20.8571 5.94278Z" fill="#FF5E5E"/>
<path d="M8.2131 4.70416C8.53751 4.1951 9.12189 3.86181 9.7252 3.84181C9.9576 3.83412 10.2066 3.86631 10.4087 3.75124C10.6725 3.60097 10.7503 3.26681 10.862 2.98447C11.0937 2.39834 11.5802 1.91816 12.1693 1.69408C12.7583 1.46999 13.441 1.50549 14.0037 1.78946C14.3765 1.97761 14.7536 2.27889 15.1604 2.18494C15.3052 2.1515 15.4336 2.06949 15.5555 1.98436C16.0705 1.62438 16.5533 1.16958 17.1672 1.03576C17.8861 0.879113 18.6519 1.21996 19.1396 1.7709C19.4174 2.08468 19.6524 2.48523 20.0542 2.6043C20.28 2.67125 20.5228 2.63505 20.7565 2.6645C21.0571 2.70231 21.3704 2.89133 21.422 3.1898C21.4581 3.39845 21.3605 3.60335 21.301 3.80656C21.2414 4.00977 21.234 4.26386 21.3991 4.39637C21.4854 4.46569 21.6001 4.48494 21.7042 4.52251C22.2311 4.71278 22.4284 5.48555 22.0572 5.9051C21.9574 6.01793 21.8234 6.10537 21.6744 6.12712C21.4049 6.16638 21.1515 5.99136 20.8808 5.96123C20.1555 5.88047 19.575 6.82526 18.8645 6.65843C18.1863 6.49917 18.0117 5.45093 17.327 5.32272C16.5392 5.17527 15.9927 6.38972 15.2019 6.25933C14.711 6.17844 14.4452 5.61269 13.9813 5.43292C13.663 5.30954 13.2695 5.40523 13.0519 5.66814C12.8342 5.9311 12.8167 6.34371 13.0202 6.6178C13.2236 6.8919 13.6328 6.99303 13.9358 6.83576C13.5206 7.31094 12.6555 7.26394 12.2942 6.74663C12.1939 6.60299 12.1309 6.43591 12.0295 6.29308C11.928 6.15025 11.7693 6.02799 11.5947 6.04174C11.3691 6.05949 11.2271 6.2812 11.0785 6.45185C10.7204 6.86289 10.1523 7.05779 9.60781 7.02991C9.1432 7.0061 8.31892 6.79082 8.04558 6.37534C7.74967 5.92566 7.95113 5.11533 8.2131 4.70416Z" fill="#FF5E5E"/>
<path d="M15.1775 15.5968C14.9674 15.5968 14.7574 15.5675 14.5549 15.5066C14.296 15.4289 14.1114 15.3166 13.9905 15.1632C13.972 15.1396 13.976 15.1057 13.9995 15.0872C14.0229 15.0687 14.057 15.0727 14.0754 15.0962C14.1821 15.2317 14.3491 15.3321 14.586 15.4031C15.3476 15.6313 16.2218 15.3931 16.7619 14.8099C16.7822 14.7879 16.8163 14.7865 16.8383 14.8069C16.8603 14.8272 16.8616 14.8614 16.8413 14.8833C16.4175 15.3411 15.7974 15.5968 15.1775 15.5968Z" fill="#331510"/>
<path d="M15.3723 14.8351C15.2662 14.8351 15.1664 14.7866 15.0692 14.7394C14.958 14.6854 14.8531 14.6347 14.7539 14.6646C14.7316 14.6715 14.7077 14.6813 14.6836 14.6911C14.5902 14.7286 14.4619 14.7807 14.395 14.6685C14.3715 14.6292 14.3716 14.5854 14.3717 14.5533L14.3936 11.3219C14.3939 11.2923 14.418 11.2683 14.4477 11.2683C14.4478 11.2683 14.448 11.2683 14.4481 11.2683C14.4779 11.2686 14.5019 11.2929 14.5017 11.3228L14.4799 14.554C14.4797 14.5742 14.4795 14.5996 14.4876 14.6129C14.5046 14.6409 14.5489 14.6288 14.6429 14.5909C14.6701 14.5798 14.697 14.569 14.7221 14.5614C14.8616 14.518 14.9912 14.5814 15.1163 14.6421C15.2251 14.6948 15.3273 14.7446 15.4258 14.7206C15.4841 14.7062 15.5357 14.6664 15.5902 14.6241C15.6532 14.5753 15.7185 14.5248 15.8025 14.5067C15.8865 14.4881 15.9679 14.5072 16.0466 14.5257C16.1225 14.5434 16.1943 14.5604 16.2576 14.5392C16.3301 14.5149 16.3875 14.4363 16.4036 14.3391C16.4194 14.243 16.3993 14.1412 16.3796 14.0427C16.3739 14.0135 16.3929 13.985 16.4222 13.9791C16.4513 13.973 16.4799 13.9925 16.4858 14.0217C16.5062 14.1245 16.5293 14.2413 16.5103 14.3568C16.4878 14.493 16.402 14.6047 16.292 14.6417C16.1998 14.6726 16.1095 14.6514 16.022 14.6309C15.9518 14.6146 15.8854 14.5989 15.8254 14.6122C15.7653 14.6252 15.7124 14.6661 15.6564 14.7096C15.5954 14.7568 15.5323 14.8056 15.4518 14.8255C15.4248 14.8322 15.3983 14.8351 15.3723 14.8351Z" fill="#331510"/>
</svg>
