<svg width="25" height="24" viewBox="0 0 25 24" fill="none" xmlns="http://www.w3.org/2000/svg">
<path d="M4.5 18.8251L3.675 18.4251C3.15833 18.2084 2.80833 17.8378 2.625 17.3131C2.44166 16.7884 2.46666 16.2674 2.7 15.7501L4.5 11.8501V18.8251ZM8.5 21.0001C7.95 21.0001 7.47933 20.8001 7.088 20.4001C6.69666 20.0001 6.50066 19.5251 6.5 18.9751V13.0001L9.175 20.3501C9.225 20.4668 9.26666 20.5794 9.3 20.6881C9.33333 20.7968 9.39166 20.9008 9.475 21.0001H8.5Z" fill="#9E7CFF"/>
<path d="M14.696 14.796L15.846 10.646L12.296 8.196L11.146 12.346L14.696 14.796ZM12.646 20.871C12.1293 21.0543 11.6127 21.0293 11.096 20.796C10.5793 20.5627 10.2293 20.1877 10.046 19.671L5.621 7.446C5.43767 6.92933 5.46267 6.41667 5.696 5.908C5.92933 5.39933 6.30433 5.05367 6.821 4.871L14.346 2.121C14.8627 1.93767 15.3753 1.96267 15.884 2.196C16.3927 2.42933 16.7383 2.80433 16.921 3.321L21.371 15.546C21.5543 16.0627 21.5293 16.5753 21.296 17.084C21.0627 17.5927 20.6877 17.9383 20.171 18.121L12.646 20.871Z" fill="#A1A1A1"/>
</svg>
