<svg width="17" height="16" viewBox="0 0 17 16" fill="none" xmlns="http://www.w3.org/2000/svg">
<path d="M14.6668 6.09995C13.1268 3.67995 10.8735 2.28662 8.50016 2.28662C7.3135 2.28662 6.16016 2.63329 5.10683 3.27995C4.0535 3.93329 3.10683 4.88662 2.3335 6.09995C1.66683 7.14662 1.66683 8.84662 2.3335 9.89329C3.8735 12.32 6.12683 13.7066 8.50016 13.7066C9.68683 13.7066 10.8402 13.36 11.8935 12.7133C12.9468 12.06 13.8935 11.1066 14.6668 9.89329C15.3335 8.85329 15.3335 7.14662 14.6668 6.09995ZM8.50016 10.6933C7.00683 10.6933 5.80683 9.48662 5.80683 7.99995C5.80683 6.51329 7.00683 5.30662 8.50016 5.30662C9.9935 5.30662 11.1935 6.51329 11.1935 7.99995C11.1935 9.48662 9.9935 10.6933 8.50016 10.6933Z" fill="white"/>
<path d="M8.5001 6.09326C7.45343 6.09326 6.6001 6.94659 6.6001 7.99993C6.6001 9.04659 7.45343 9.89993 8.5001 9.89993C9.54676 9.89993 10.4068 9.04659 10.4068 7.99993C10.4068 6.95326 9.54676 6.09326 8.5001 6.09326Z" fill="#292D32"/>
</svg>
