<svg width="14" height="16" viewBox="0 0 14 16" fill="none" xmlns="http://www.w3.org/2000/svg">
<path d="M6.4074 8.15383V4.60469H5.40969C4.30454 4.60469 3.72197 3.88812 3.72197 3.19183C3.72197 2.46869 4.25769 2.04012 4.97426 2.04012C5.79797 2.04012 6.44083 2.67612 6.44083 3.74098V4.60469H7.55912V3.74098C7.55912 2.67612 8.20197 2.04012 9.02569 2.04012C9.74226 2.04012 10.2845 2.46869 10.2845 3.19155C10.2845 3.88812 9.68169 4.60469 8.59026 4.60469H7.59254V8.15412H12.3137C13.0434 8.15412 13.4385 7.87298 13.4385 7.1564V5.60269C13.4385 4.89298 13.0434 4.60498 12.3137 4.60498H10.7534C11.1685 4.23012 11.4163 3.72098 11.4163 3.14498C11.4163 1.85269 10.3917 0.922119 9.09254 0.922119C8.12826 0.922119 7.34483 1.45755 7.0034 2.40869C6.66169 1.45783 5.87169 0.922119 4.9074 0.922119C3.61483 0.922119 2.58369 1.85269 2.58369 3.14498C2.58369 3.72098 2.82483 4.23012 3.24654 4.60498H1.68654C0.996544 4.60498 0.561401 4.89298 0.561401 5.60269V7.1564C0.561401 7.87298 0.963116 8.15412 1.68626 8.15412L6.4074 8.15383ZM6.4074 15.0778V8.87041H1.51883V13.377C1.51883 14.4953 2.17512 15.0778 3.2934 15.0778H6.4074ZM7.59254 8.87041V15.0778H10.7065C11.8248 15.0778 12.4808 14.4953 12.4808 13.377V8.87041H7.59254Z" fill="#5E6792"/>
</svg>
