<svg width="119" height="32" viewBox="0 0 119 32" fill="none" xmlns="http://www.w3.org/2000/svg">
<g clip-path="url(#clip0_3265_12730)">
<path d="M10.8847 26.8846C16.8961 26.8846 21.7694 22.0114 21.7694 15.9999C21.7694 9.98848 16.8961 5.11523 10.8847 5.11523C4.87324 5.11523 0 9.98848 0 15.9999C0 22.0114 4.87324 26.8846 10.8847 26.8846Z" fill="#5B5F63"/>
<path d="M17.708 23.2861C17.708 22.9942 17.2189 22.5051 16.9271 22.5051C17.2189 22.5051 17.708 22.016 17.708 21.7241C17.708 22.016 18.1972 22.5051 18.489 22.5051C18.1972 22.5051 17.708 22.9942 17.708 23.2861Z" fill="white"/>
<path d="M6.00223 24.5854C6.00223 24.2935 5.5131 23.8044 5.22125 23.8044C5.5131 23.8044 6.00223 23.3153 6.00223 23.0234C6.00223 23.3153 6.49136 23.8044 6.78321 23.8044C6.49068 23.8044 6.00223 24.2929 6.00223 24.5854Z" fill="white"/>
<path d="M18.9128 12.9789C18.9128 12.6088 18.2938 11.9904 17.9244 11.9904C18.2945 11.9904 18.9128 11.3714 18.9128 11.002C18.9128 11.372 19.5319 11.9904 19.9013 11.9904C19.5319 11.9904 18.9128 12.6095 18.9128 12.9789Z" fill="white"/>
<path d="M2.87084 14.8462C2.87084 14.2434 1.86197 13.2339 1.25854 13.2339C1.86128 13.2339 2.87084 12.225 2.87084 11.6216C2.87084 12.2243 3.87972 13.2339 4.48314 13.2339C3.8804 13.2346 2.87084 14.2434 2.87084 14.8462Z" fill="white"/>
<path d="M10.8847 9.24609C9.81936 9.24609 8.82545 9.51481 7.9295 9.9536C10.1711 11.0523 11.7283 13.3347 11.7283 16C11.7283 18.6654 10.1711 20.9471 7.9295 22.0458C8.82545 22.4853 9.81936 22.754 10.8847 22.754C14.6147 22.754 17.6387 19.7301 17.6387 16C17.6387 12.27 14.6147 9.24609 10.8847 9.24609Z" fill="url(#paint0_linear_3265_12730)"/>
</g>
<path d="M28.1115 26C27.4403 26 26.8138 25.9254 26.232 25.7763C25.6652 25.6271 25.2028 25.3437 24.8448 24.926C24.4868 24.5083 24.3078 23.8893 24.3078 23.0689C24.3078 22.3827 24.4644 21.8085 24.7777 21.346C25.0909 20.8836 25.4787 20.4883 25.9411 20.1602C26.4036 19.832 26.8511 19.5337 27.2836 19.2652L30.7517 17.0948C31.3186 16.7368 31.6915 16.4385 31.8705 16.1998C32.0495 15.9612 32.139 15.7001 32.139 15.4167C32.139 15.1631 32.0569 14.9468 31.8928 14.7678C31.7437 14.5888 31.3857 14.4993 30.8189 14.4993C30.2669 14.4993 29.6852 14.559 29.0736 14.6783C28.462 14.7977 27.8728 14.8573 27.306 14.8573C26.4856 14.8573 25.8144 14.6634 25.2923 14.2756C24.7851 13.8728 24.5315 13.2836 24.5315 12.508C24.5315 11.7622 24.8 11.1804 25.337 10.7627C25.874 10.3302 26.5975 10.0244 27.5074 9.84538C28.4322 9.66638 29.4614 9.57689 30.5951 9.57689C32.4298 9.57689 33.8469 9.91997 34.8463 10.6061C35.8606 11.2923 36.3678 12.3588 36.3678 13.8057C36.3678 14.8051 36.0769 15.6554 35.4952 16.3565C34.9284 17.0575 34.1378 17.7437 33.1235 18.4149L28.9841 21.1447H34.108C34.9433 21.1447 35.5996 21.3535 36.0769 21.7712C36.5692 22.1739 36.8153 22.778 36.8153 23.5835C36.8153 24.389 36.5692 24.9931 36.0769 25.3959C35.5996 25.7986 34.9433 26 34.108 26H28.1115ZM44.2011 9.71113C45.9762 9.71113 47.4231 10.0468 48.5418 10.718C49.6755 11.3743 50.5108 12.3141 51.0478 13.5372C51.5997 14.7455 51.8757 16.1849 51.8757 17.8556C51.8757 20.6599 51.2715 22.7184 50.0633 24.031C48.8551 25.3437 47.0054 26 44.5143 26H43.5298C42.7989 26 42.1202 25.9254 41.4937 25.7763C40.8672 25.6271 40.3153 25.3586 39.838 24.9708C39.3607 24.568 38.9878 24.0086 38.7193 23.2926C38.4508 22.5767 38.3165 21.6518 38.3165 20.5182C38.3165 19.4591 38.4582 18.5417 38.7416 17.7661C39.04 16.9904 39.3905 16.3714 39.7933 15.909C40.196 15.4465 40.5615 15.1631 40.8896 15.0587L40.7777 14.6336H40.3974C39.7112 14.6336 39.1668 14.4173 38.764 13.9847C38.3762 13.5372 38.1748 12.9406 38.1599 12.1947C38.145 11.4489 38.3389 10.8522 38.7416 10.4048C39.1593 9.94234 39.7112 9.71113 40.3974 9.71113H44.2011ZM42.5901 20.2273C42.5901 20.5405 42.6572 20.7568 42.7915 20.8762C42.9406 20.9955 43.1569 21.0552 43.4403 21.0552H44.6486C45.4093 21.0552 45.9985 20.8911 46.4162 20.5629C46.8339 20.2348 47.1247 19.8171 47.2888 19.3099C47.4678 18.7879 47.5573 18.2359 47.5573 17.6542C47.5573 17.0724 47.4678 16.5131 47.2888 15.9761C47.1247 15.4391 46.8339 14.999 46.4162 14.656C45.9985 14.3129 45.4093 14.1413 44.6486 14.1413H43.4403C43.1569 14.1413 42.9406 14.2085 42.7915 14.3427C42.6572 14.4621 42.5901 14.6858 42.5901 15.014V20.2273ZM55.4362 26C54.6606 26 54.0863 25.7688 53.7134 25.3064C53.3404 24.844 53.154 24.2249 53.154 23.4493V13.0226C53.154 11.8889 53.4598 11.0536 54.0714 10.5166C54.6979 9.97963 55.4437 9.71113 56.3088 9.71113C57.1292 9.71113 57.8229 9.97963 58.3897 10.5166C58.9714 11.0536 59.3966 11.9039 59.6651 13.0674L61.4103 20.6524H61.992L63.7373 13.0674C64.0058 11.9039 64.4309 11.0536 65.0126 10.5166C65.6093 9.97963 66.3178 9.71113 67.1382 9.71113C68.0034 9.71113 68.7418 9.97963 69.3534 10.5166C69.9799 11.0536 70.2931 11.8889 70.2931 13.0226V23.4493C70.2931 24.2249 70.0992 24.844 69.7114 25.3064C69.3384 25.7688 68.7642 26 67.9885 26C67.2427 26 66.6684 25.7688 66.2656 25.3064C65.8629 24.844 65.6615 24.2249 65.6615 23.4493V17.4304C65.6615 17.2813 65.6391 17.147 65.5944 17.0277C65.5646 16.8934 65.4676 16.8263 65.3035 16.8263C65.1693 16.8263 65.0723 16.8934 65.0126 17.0277C64.953 17.147 64.9082 17.2813 64.8784 17.4304L64.0282 23.0689C63.9237 23.6805 63.7969 24.21 63.6478 24.6575C63.5135 25.0901 63.2972 25.4257 62.9989 25.6644C62.7006 25.8881 62.268 26 61.7012 26C61.1493 26 60.7167 25.8881 60.4034 25.6644C60.1051 25.4257 59.8814 25.0901 59.7322 24.6575C59.5979 24.21 59.4861 23.6805 59.3966 23.0689L58.5239 17.4304C58.509 17.2813 58.4717 17.147 58.4121 17.0277C58.3524 16.8934 58.248 16.8263 58.0988 16.8263C57.9497 16.8263 57.8527 16.8934 57.808 17.0277C57.7632 17.147 57.7408 17.2813 57.7408 17.4304V23.4493C57.7408 24.2249 57.5395 24.844 57.1367 25.3064C56.7489 25.7688 56.182 26 55.4362 26ZM78.9539 26.0671C77.3578 26.0671 76.0079 25.7166 74.9041 25.0155C73.8002 24.3144 72.9649 23.3449 72.3981 22.1068C71.8313 20.8687 71.5478 19.4442 71.5478 17.8332C71.5478 16.2371 71.8313 14.8201 72.3981 13.582C72.9649 12.329 73.8002 11.352 74.9041 10.6509C76.0079 9.93488 77.3578 9.57689 78.9539 9.57689C80.55 9.57689 81.8925 9.93488 82.9814 10.6509C84.0852 11.352 84.9205 12.329 85.4873 13.582C86.0542 14.8201 86.3376 16.2371 86.3376 17.8332C86.3376 19.4442 86.0542 20.8687 85.4873 22.1068C84.9205 23.3449 84.0852 24.3144 82.9814 25.0155C81.8925 25.7166 80.55 26.0671 78.9539 26.0671ZM74.3671 17.4752C74.3671 17.9376 74.4789 18.3776 74.7027 18.7953C74.9264 19.1981 75.3665 19.5262 76.0228 19.7798C76.6791 20.0185 77.6562 20.1378 78.9539 20.1378C80.2516 20.1378 81.2212 20.0185 81.8626 19.7798C82.519 19.5262 82.959 19.1981 83.1827 18.7953C83.4065 18.3776 83.5184 17.9376 83.5184 17.4752C83.5184 16.9979 83.4065 16.5727 83.1827 16.1998C82.959 15.812 82.519 15.5062 81.8626 15.2825C81.2212 15.0438 80.2516 14.9245 78.9539 14.9245C77.6562 14.9245 76.6791 15.0438 76.0228 15.2825C75.3665 15.5062 74.9264 15.812 74.7027 16.1998C74.4789 16.5727 74.3671 16.9979 74.3671 17.4752ZM94.6425 26.0671C93.0464 26.0671 91.6965 25.7166 90.5927 25.0155C89.4888 24.3144 88.6535 23.3449 88.0867 22.1068C87.5198 20.8687 87.2364 19.4442 87.2364 17.8332C87.2364 16.2371 87.5198 14.8201 88.0867 13.582C88.6535 12.329 89.4888 11.352 90.5927 10.6509C91.6965 9.93488 93.0464 9.57689 94.6425 9.57689C96.2386 9.57689 97.5811 9.93488 98.67 10.6509C99.7738 11.352 100.609 12.329 101.176 13.582C101.743 14.8201 102.026 16.2371 102.026 17.8332C102.026 19.4442 101.743 20.8687 101.176 22.1068C100.609 23.3449 99.7738 24.3144 98.67 25.0155C97.5811 25.7166 96.2386 26.0671 94.6425 26.0671ZM90.0557 17.4752C90.0557 17.9376 90.1675 18.3776 90.3913 18.7953C90.615 19.1981 91.0551 19.5262 91.7114 19.7798C92.3677 20.0185 93.3448 20.1378 94.6425 20.1378C95.9402 20.1378 96.9098 20.0185 97.5512 19.7798C98.2075 19.5262 98.6476 19.1981 98.8713 18.7953C99.0951 18.3776 99.207 17.9376 99.207 17.4752C99.207 16.9979 99.0951 16.5727 98.8713 16.1998C98.6476 15.812 98.2075 15.5062 97.5512 15.2825C96.9098 15.0438 95.9402 14.9245 94.6425 14.9245C93.3448 14.9245 92.3677 15.0438 91.7114 15.2825C91.0551 15.5062 90.615 15.812 90.3913 16.1998C90.1675 16.5727 90.0557 16.9979 90.0557 17.4752ZM105.496 26C104.75 26 104.183 25.7688 103.795 25.3064C103.407 24.844 103.213 24.2249 103.213 23.4493V12.9555C103.213 12.1798 103.355 11.5533 103.638 11.076C103.937 10.5838 104.317 10.2258 104.78 10.002C105.257 9.77826 105.771 9.66638 106.323 9.66638C107.144 9.66638 107.837 9.88267 108.404 10.3153C108.971 10.7478 109.411 11.5086 109.724 12.5975L112.141 20.8538H112.499V12.2619C112.499 11.4713 112.7 10.8522 113.103 10.4048C113.506 9.94234 114.08 9.71113 114.826 9.71113C115.601 9.71113 116.176 9.94234 116.549 10.4048C116.936 10.8522 117.13 11.4713 117.13 12.2619V22.3753C117.13 23.6283 116.854 24.5531 116.303 25.1498C115.751 25.7464 114.975 26.0447 113.976 26.0447C112.961 26.0447 112.171 25.7763 111.604 25.2393C111.037 24.7023 110.604 23.9117 110.306 22.8675L108.717 17.4304C108.688 17.2813 108.628 17.147 108.538 17.0277C108.464 16.8934 108.359 16.8263 108.225 16.8263C108.061 16.8263 107.949 16.8934 107.89 17.0277C107.83 17.147 107.8 17.2813 107.8 17.4304V23.4493C107.8 24.2249 107.606 24.844 107.218 25.3064C106.831 25.7688 106.256 26 105.496 26Z" fill="white"/>
<defs>
<linearGradient id="paint0_linear_3265_12730" x1="10.761" y1="13.1783" x2="17.6876" y2="29.6291" gradientUnits="userSpaceOnUse">
<stop stop-color="#ECC635"/>
<stop offset="1" stop-color="#FCA61F"/>
</linearGradient>
<clipPath id="clip0_3265_12730">
<rect width="21.7694" height="21.7694" fill="white" transform="translate(0 5.11523)"/>
</clipPath>
</defs>
</svg>
