<svg width="21" height="20" viewBox="0 0 21 20" fill="none" xmlns="http://www.w3.org/2000/svg">
<path d="M10.501 20.0022C12.3575 20.0022 14.138 19.2647 15.4507 17.9519C16.7635 16.6392 17.501 14.8587 17.501 13.0022C17.501 11.1457 16.7635 9.36521 15.4507 8.05245C14.138 6.7397 12.3575 6.0022 10.501 6.0022C8.64446 6.0022 6.86398 6.7397 5.55123 8.05245C4.23847 9.36521 3.50098 11.1457 3.50098 13.0022C3.50098 14.8587 4.23847 16.6392 5.55123 17.9519C6.86398 19.2647 8.64446 20.0022 10.501 20.0022ZM8.00098 11.2522C8.00098 11.0533 8.07999 10.8625 8.22065 10.7219C8.3613 10.5812 8.55206 10.5022 8.75098 10.5022H13.001C13.1533 10.5023 13.3021 10.5488 13.4273 10.6355C13.5526 10.7222 13.6485 10.8451 13.7023 10.9876C13.756 11.1302 13.765 11.2857 13.7282 11.4336C13.6914 11.5814 13.6103 11.7145 13.496 11.8152V11.8162L13.483 11.8272L13.43 11.8772C13.0966 12.2036 12.7874 12.5539 12.505 12.9252C11.948 13.6562 11.317 14.6952 10.975 15.9492C10.9491 16.0443 10.9048 16.1333 10.8445 16.2113C10.7842 16.2892 10.7091 16.3545 10.6236 16.4034C10.5381 16.4524 10.4438 16.484 10.346 16.4965C10.2483 16.509 10.1491 16.5021 10.054 16.4762C9.9589 16.4503 9.86985 16.406 9.79191 16.3457C9.71397 16.2854 9.64867 16.2104 9.59973 16.1248C9.5508 16.0393 9.51918 15.945 9.5067 15.8473C9.49422 15.7495 9.50111 15.6503 9.52698 15.5552C9.93498 14.0592 10.679 12.8482 11.31 12.0172L11.321 12.0022H8.75098C8.55206 12.0022 8.3613 11.9232 8.22065 11.7825C8.07999 11.6419 8.00098 11.4511 8.00098 11.2522Z" fill="#5E6792"/>
<path d="M14.061 2.17616C12.6021 2.53683 11.3317 3.43183 10.501 4.68416C9.67029 3.43183 8.39988 2.53683 6.941 2.17616C7.27667 1.52095 7.78665 0.971091 8.41478 0.58713C9.04291 0.203168 9.76481 0 10.501 0C11.2372 0 11.9591 0.203168 12.5872 0.58713C13.2153 0.971091 13.7253 1.52095 14.061 2.17616ZM2.558 12.0442C2.77304 10.2663 3.57809 8.61188 4.84441 7.34556C6.11072 6.07925 7.76512 5.27419 9.543 5.05916C9.11756 4.47582 8.57084 3.99153 7.94042 3.6396C7.31 3.28768 6.61085 3.07645 5.89102 3.02045C5.1712 2.96446 4.44779 3.06502 3.77053 3.31522C3.09327 3.56542 2.47823 3.95933 1.9677 4.46986C1.45717 4.98039 1.06326 5.59543 0.813062 6.27269C0.56286 6.94995 0.4623 7.67336 0.518296 8.39318C0.574293 9.11301 0.785517 9.81216 1.13745 10.4426C1.48937 11.073 1.97366 11.6197 2.557 12.0452M18.443 12.0452C19.0263 11.6197 19.5106 11.073 19.8626 10.4426C20.2145 9.81216 20.4257 9.11301 20.4817 8.39318C20.5377 7.67336 20.4371 6.94995 20.1869 6.27269C19.9367 5.59543 19.5428 4.98039 19.0323 4.46986C18.5218 3.95933 17.9067 3.56542 17.2295 3.31522C16.5522 3.06502 15.8288 2.96446 15.109 3.02045C14.3892 3.07645 13.69 3.28768 13.0596 3.6396C12.4292 3.99153 11.8824 4.47582 11.457 5.05916C13.2352 5.27403 14.89 6.07914 16.1565 7.34567C17.423 8.6122 18.2281 10.267 18.443 12.0452Z" fill="#5E6792"/>
</svg>
