<svg width="22" height="22" viewBox="0 0 22 22" fill="none" xmlns="http://www.w3.org/2000/svg">
<g clip-path="url(#clip0_3281_13025)">
<path d="M10.8847 21.8846C16.8961 21.8846 21.7694 17.0114 21.7694 10.9999C21.7694 4.98848 16.8961 0.115234 10.8847 0.115234C4.87324 0.115234 0 4.98848 0 10.9999C0 17.0114 4.87324 21.8846 10.8847 21.8846Z" fill="#5B5F63"/>
<path d="M17.708 18.2861C17.708 17.9942 17.2189 17.5051 16.9271 17.5051C17.2189 17.5051 17.708 17.016 17.708 16.7241C17.708 17.016 18.1972 17.5051 18.489 17.5051C18.1972 17.5051 17.708 17.9942 17.708 18.2861Z" fill="white"/>
<path d="M6.00223 19.5854C6.00223 19.2935 5.5131 18.8044 5.22125 18.8044C5.5131 18.8044 6.00223 18.3153 6.00223 18.0234C6.00223 18.3153 6.49136 18.8044 6.78321 18.8044C6.49068 18.8044 6.00223 19.2929 6.00223 19.5854Z" fill="white"/>
<path d="M18.9128 7.97889C18.9128 7.60881 18.2938 6.99042 17.9244 6.99042C18.2945 6.99042 18.9128 6.37135 18.9128 6.00195C18.9128 6.37203 19.5319 6.99042 19.9013 6.99042C19.5319 6.99042 18.9128 7.60949 18.9128 7.97889Z" fill="white"/>
<path d="M2.87084 9.84617C2.87084 9.24343 1.86197 8.23388 1.25854 8.23388C1.86128 8.23388 2.87084 7.225 2.87084 6.62158C2.87084 7.22432 3.87972 8.23388 4.48314 8.23388C3.8804 8.23456 2.87084 9.24343 2.87084 9.84617Z" fill="white"/>
<path d="M10.8847 4.24609C9.81936 4.24609 8.82545 4.51481 7.9295 4.9536C10.1711 6.05227 11.7283 8.33466 11.7283 11C11.7283 13.6654 10.1711 15.9471 7.9295 17.0458C8.82545 17.4853 9.81936 17.754 10.8847 17.754C14.6147 17.754 17.6387 14.7301 17.6387 11C17.6387 7.27 14.6147 4.24609 10.8847 4.24609Z" fill="url(#paint0_linear_3281_13025)"/>
</g>
<defs>
<linearGradient id="paint0_linear_3281_13025" x1="10.761" y1="8.17832" x2="17.6876" y2="24.6291" gradientUnits="userSpaceOnUse">
<stop stop-color="#ECC635"/>
<stop offset="1" stop-color="#FCA61F"/>
</linearGradient>
<clipPath id="clip0_3281_13025">
<rect width="21.7694" height="21.7694" fill="white" transform="translate(0 0.115234)"/>
</clipPath>
</defs>
</svg>
