<svg width="16" height="16" viewBox="0 0 16 16" fill="none" xmlns="http://www.w3.org/2000/svg">
<rect width="16" height="16" rx="8" fill="#F70011"/>
<path d="M6.30569 10.8455V9.13167H8.58069C9.30869 9.13167 9.85469 8.98506 10.2187 8.69184C10.5827 8.3885 10.7647 7.89306 10.7647 7.2055C10.7647 6.59884 10.5979 6.13878 10.2642 5.82534C9.93052 5.51189 9.40474 5.35517 8.68685 5.35517H6.30569V3.6565H8.76269C9.39969 3.6565 9.97602 3.73234 10.4917 3.884C11.0175 4.03567 11.4624 4.26317 11.8264 4.5665C12.2005 4.85973 12.4836 5.23384 12.6757 5.68884C12.8678 6.13373 12.9639 6.6595 12.9639 7.26617C12.9639 8.04473 12.7869 8.70195 12.433 9.23784C12.0791 9.76361 11.5534 10.163 10.8557 10.436C10.1681 10.709 9.30869 10.8455 8.27735 10.8455H6.30569ZM4.77385 13.6665V3.6565H6.95785V13.6665H4.77385Z" fill="white"/>
</svg>
