<svg width="7" height="6" viewBox="0 0 7 6" fill="none" xmlns="http://www.w3.org/2000/svg">
<path d="M3.13968 0C3.63468 0.505148 3.67838 1.67267 3.81038 2.39115C4.54027 2.71405 5.31189 2.93689 6.07097 3.1813C5.65817 3.32535 5.22943 3.46266 4.83114 3.64334C4.19518 3.93207 3.84883 4.49603 3.60846 5.12518C3.51522 5.37022 3.43578 5.60139 3.30252 5.82853C3.2686 5.88609 3.23355 5.94276 3.19875 6C3.00919 5.46995 2.82481 4.86539 2.52038 4.38949C1.97949 3.54423 0.895688 3.47709 0 3.31886C0.835105 3.07294 1.64063 2.79587 2.45115 2.47884C2.70628 1.66315 2.91317 0.824325 3.13968 0Z" fill="#9E7CFF"/>
</svg>
