<svg width="25" height="24" viewBox="0 0 25 24" fill="none" xmlns="http://www.w3.org/2000/svg">
<path d="M22.1667 12.0021C22.1667 12.5388 22.1233 13.0654 22.0367 13.5788C21.8 15.0421 21.23 16.3954 20.4067 17.5588V17.5621C18.9933 19.5721 16.83 21.0188 14.3267 21.4954C13.5614 21.6416 12.7814 21.6953 12.0033 21.6554H11.98C11.8233 21.6454 11.6667 21.6354 11.51 21.6188C11.4967 21.6188 11.4833 21.6154 11.47 21.6154C11.34 21.6021 11.21 21.5854 11.08 21.5654C11.0433 21.5588 11.0033 21.5554 10.9667 21.5488C10.8667 21.5321 10.77 21.5154 10.67 21.4954C10.5133 21.4654 10.3567 21.4321 10.2 21.3921C10.1367 21.3788 10.07 21.3621 10.0067 21.3454C9.92001 21.3221 9.83334 21.2954 9.74668 21.2688C9.67001 21.2454 9.59001 21.2221 9.51001 21.1954C9.43104 21.1724 9.35318 21.1457 9.27668 21.1154L9.08668 21.0454C9.05001 21.0354 9.01668 21.0221 8.98001 21.0054C8.67364 20.8832 8.37329 20.7464 8.08001 20.5954C8.00334 20.5554 7.93001 20.5154 7.85334 20.4721C7.76668 20.4254 7.68334 20.3788 7.60001 20.3288C7.50668 20.2721 7.41334 20.2188 7.32001 20.1588C7.29334 20.1421 7.26668 20.1221 7.24001 20.1054C7.11001 20.0221 6.98001 19.9321 6.85668 19.8421C6.75001 19.7688 6.64668 19.6888 6.54668 19.6121C6.53698 19.6053 6.52804 19.5975 6.52001 19.5888C6.43001 19.5188 6.34334 19.4488 6.26001 19.3754C6.21668 19.3421 6.17334 19.3054 6.13334 19.2688L6.03668 19.1821C6.03001 19.1788 6.02668 19.1754 6.02334 19.1721C6.01334 19.1621 6.00334 19.1521 5.99334 19.1454C5.98668 19.1421 5.98334 19.1354 5.98001 19.1321C5.97409 19.1294 5.96935 19.1247 5.96668 19.1188C5.924 19.0827 5.88285 19.0449 5.84334 19.0054C5.80001 18.9654 5.76001 18.9288 5.72334 18.8888C5.71668 18.8821 5.71001 18.8754 5.70668 18.8688C5.67334 18.8354 5.64001 18.8054 5.60668 18.7754C5.55601 18.7248 5.50934 18.6681 5.46001 18.6154L5.45334 18.6088L5.45401 18.6091C5.34268 18.4911 5.23068 18.3741 5.12334 18.2488C5.04334 18.1554 4.96334 18.0588 4.88668 17.9588C3.87777 16.6733 3.21247 15.1522 2.95334 13.5388C2.87334 13.0388 2.83334 12.5254 2.83334 12.0021C2.83334 9.94545 3.47334 8.03878 4.57334 6.47212C5.63668 4.94545 7.13334 3.74212 8.88334 3.03878C10 2.58212 11.22 2.33545 12.5 2.33545C13.7767 2.33545 14.9967 2.58212 16.11 3.03545C16.95 3.36878 17.73 3.82212 18.4333 4.37545C18.62 4.51878 18.8033 4.67212 18.98 4.83545H18.9833C19.16 4.99545 19.33 5.16212 19.4933 5.33545C19.7433 5.59212 19.9733 5.86212 20.19 6.14878C20.26 6.24212 20.3333 6.33878 20.4 6.43545V6.43878C20.4 6.43878 20.4 6.43545 20.4033 6.43878C20.57 6.66878 20.7267 6.91212 20.8667 7.16212C20.9167 7.24545 20.9633 7.32878 21.01 7.41545C21.0667 7.51878 21.12 7.61878 21.1667 7.72212C21.2033 7.79212 21.2367 7.86212 21.27 7.93545C21.3233 8.04212 21.37 8.14878 21.4133 8.25545C21.4667 8.37545 21.5133 8.49545 21.5567 8.61878C21.5933 8.71212 21.6267 8.80545 21.6567 8.90212C21.6833 8.97878 21.71 9.05878 21.7367 9.14212C21.77 9.24878 21.8 9.35545 21.83 9.46212C21.85 9.53878 21.87 9.61212 21.8867 9.68878C21.9467 9.92545 21.9967 10.1621 22.0333 10.4054C22.0467 10.4754 22.0567 10.5454 22.0667 10.6188C22.0833 10.7254 22.0967 10.8354 22.1067 10.9421C22.1133 10.9888 22.12 11.0354 22.1233 11.0788C22.1333 11.1954 22.1433 11.3121 22.1467 11.4321C22.1533 11.4821 22.1567 11.5288 22.1567 11.5788C22.1633 11.7188 22.1667 11.8588 22.1667 12.0021Z" fill="#5E6792"/>
<path d="M11.9123 9.35978L9.86034 10.8504C9.68949 10.9746 9.56232 11.1496 9.49705 11.3504C9.43178 11.5513 9.43177 11.7676 9.49701 11.9684L10.281 14.3804C10.3463 14.5813 10.4734 14.7563 10.6443 14.8804C10.8151 15.0046 11.0208 15.0714 11.232 15.0714H13.768C13.9792 15.0715 14.1851 15.0047 14.356 14.8805C14.5269 14.7564 14.6541 14.5813 14.7193 14.3804L15.5027 11.9684C15.5679 11.7676 15.5679 11.5513 15.5026 11.3504C15.4374 11.1496 15.3102 10.9746 15.1393 10.8504L13.0877 9.35978C12.9169 9.23571 12.7111 9.16889 12.5 9.16889C12.2889 9.16889 12.0832 9.23571 11.9123 9.35978ZM15.9267 3.39545L13.1233 4.76878C12.9267 4.86212 12.7133 4.90878 12.5 4.90545C12.31 4.90212 12.12 4.85878 11.94 4.77545L9.07001 3.40878C8.93001 3.34212 8.85668 3.18545 8.88334 3.03878C10 2.58212 11.22 2.33545 12.5 2.33545C13.7767 2.33545 14.9967 2.58212 16.11 3.03545C16.1367 3.17878 16.0667 3.32878 15.9267 3.39545ZM10.67 21.4955C10.5133 21.4655 10.3567 21.4321 10.2 21.3921C10.1367 21.3788 10.07 21.3621 10.0067 21.3454C9.92001 21.3221 9.83334 21.2955 9.74668 21.2688C9.67001 21.2454 9.59001 21.2221 9.51001 21.1954C9.43104 21.1724 9.35318 21.1457 9.27668 21.1154L9.08668 21.0455C9.05001 21.0354 9.01668 21.0221 8.98001 21.0054C8.85001 20.9521 8.72001 20.8988 8.59334 20.8421C8.41934 20.7654 8.24901 20.6821 8.08034 20.5951C8.00412 20.5556 7.92845 20.5149 7.85334 20.4731C7.76779 20.4264 7.68334 20.3783 7.60001 20.3288C7.50573 20.2739 7.41238 20.2175 7.32001 20.1595L7.23934 20.1058C6.19515 19.4304 5.29107 18.56 4.57668 17.5421C4.64001 17.4288 4.77001 17.3588 4.91334 17.3754L8.02668 17.7554C8.24001 17.7821 8.44001 17.8554 8.61334 17.9721C8.77668 18.0821 8.91668 18.2254 9.02001 18.3955L9.96001 19.9254L10.69 21.1188C10.7633 21.2388 10.7533 21.3888 10.67 21.4955ZM5.55334 10.4588C5.50523 10.6545 5.4154 10.8376 5.29001 10.9954L3.32334 13.4288C3.23001 13.5421 3.08001 13.5821 2.95334 13.5388C2.87334 13.0388 2.83334 12.5254 2.83334 12.0021C2.83334 9.94545 3.47334 8.03878 4.57334 6.47212C4.71334 6.48878 4.83668 6.58878 4.86668 6.73545L5.56001 9.84545C5.60668 10.0488 5.60334 10.2588 5.55334 10.4588ZM20.4067 17.5588V17.5621C18.9933 19.5721 16.83 21.0188 14.3267 21.4955C14.24 21.3888 14.23 21.2355 14.3033 21.1121L15.9667 18.3988C16.0738 18.2246 16.2187 18.0766 16.3906 17.9659C16.5625 17.8551 16.7571 17.7843 16.96 17.7588L20.0633 17.3788C20.21 17.3621 20.3433 17.4388 20.4067 17.5588ZM22.1667 12.0021C22.1667 12.5388 22.1233 13.0654 22.0367 13.5788C21.9758 13.5925 21.9122 13.5888 21.8533 13.5682C21.7944 13.5476 21.7424 13.5108 21.7033 13.4621L19.9533 11.2955L19.71 10.9954C19.5811 10.8366 19.4902 10.6505 19.4439 10.4512C19.3977 10.252 19.3975 10.0448 19.4433 9.84545L19.7967 8.26212V8.25878L20.1433 6.69545C20.17 6.56545 20.2733 6.46545 20.4 6.43878C20.4 6.43545 20.4 6.43545 20.4033 6.43878C20.57 6.66878 20.7267 6.91212 20.8667 7.16212C20.9167 7.24545 20.9633 7.32878 21.01 7.41545C21.0667 7.51878 21.12 7.61878 21.1667 7.72212C21.2033 7.79212 21.2367 7.86212 21.27 7.93545C21.3233 8.04212 21.37 8.14878 21.4133 8.25545C21.4667 8.37545 21.5133 8.49545 21.5567 8.61878C21.5933 8.71212 21.6267 8.80545 21.6567 8.90212C21.6833 8.97878 21.71 9.05878 21.7367 9.14212C21.77 9.24878 21.8 9.35545 21.83 9.46212C21.85 9.53878 21.87 9.61212 21.8867 9.68878C21.9467 9.92545 21.9967 10.1621 22.0333 10.4054C22.0467 10.4754 22.0567 10.5454 22.0667 10.6188C22.0833 10.7254 22.0967 10.8354 22.1067 10.9421C22.1133 10.9888 22.12 11.0354 22.1233 11.0788C22.1333 11.1954 22.1433 11.3121 22.1467 11.4321C22.1533 11.4821 22.1567 11.5288 22.1567 11.5788C22.1633 11.7188 22.1667 11.8588 22.1667 12.0021Z" fill="#292E54"/>
<path d="M22.1666 12.0021C22.1666 12.5388 22.1233 13.0654 22.0366 13.5788C21.8 15.0421 21.23 16.3954 20.4066 17.5588V17.5621C18.9933 19.5721 16.83 21.0188 14.3266 21.4954C13.5614 21.6416 12.7814 21.6953 12.0033 21.6554H11.98C11.8233 21.6454 11.6666 21.6354 11.51 21.6188C11.4966 21.6188 11.4833 21.6154 11.47 21.6154C11.34 21.6021 11.21 21.5854 11.08 21.5654C11.0433 21.5588 11.0033 21.5554 10.9666 21.5488C10.8666 21.5321 10.77 21.5154 10.67 21.4954C10.5133 21.4654 10.3566 21.4321 10.2 21.3921C10.1366 21.3788 10.07 21.3621 10.0066 21.3454C9.91998 21.3221 9.83331 21.2954 9.74665 21.2688C9.66998 21.2454 9.58998 21.2221 9.50998 21.1954C9.43101 21.1724 9.35315 21.1457 9.27665 21.1154L9.08665 21.0454C9.04998 21.0354 9.01665 21.0221 8.97998 21.0054C8.67361 20.8832 8.37326 20.7464 8.07998 20.5954C8.00331 20.5554 7.92998 20.5154 7.85331 20.4721C7.76665 20.4254 7.68331 20.3788 7.59998 20.3288C7.50665 20.2721 7.41331 20.2188 7.31998 20.1588C7.29331 20.1421 7.26665 20.1221 7.23998 20.1054C7.10998 20.0221 6.97998 19.9321 6.85665 19.8421C6.74998 19.7688 6.64665 19.6888 6.54665 19.6121C6.53695 19.6053 6.52801 19.5975 6.51998 19.5888C6.42998 19.5188 6.34331 19.4488 6.25998 19.3754C6.21665 19.3421 6.17331 19.3054 6.13331 19.2688L6.03665 19.1821C6.02998 19.1788 6.02665 19.1754 6.02331 19.1721C6.01331 19.1621 6.00331 19.1521 5.99331 19.1454C5.98665 19.1421 5.98331 19.1354 5.97998 19.1321C5.97406 19.1294 5.96932 19.1247 5.96665 19.1188C5.92397 19.0827 5.88282 19.0449 5.84331 19.0054C5.79998 18.9654 5.75998 18.9288 5.72331 18.8888C5.71665 18.8821 5.70998 18.8754 5.70665 18.8688C5.67331 18.8354 5.63998 18.8054 5.60665 18.7754C5.55598 18.7248 5.50931 18.6681 5.45998 18.6154L5.45331 18.6088L5.45398 18.6091C5.34265 18.4911 5.23065 18.3741 5.12331 18.2488C5.04331 18.1554 4.96331 18.0588 4.88665 17.9588C3.87774 16.6733 3.21244 15.1522 2.95331 13.5388C2.87331 13.0388 2.83331 12.5254 2.83331 12.0021C2.83331 9.94545 3.47331 8.03878 4.57331 6.47212C5.63665 4.94545 7.13331 3.74212 8.88331 3.03878C9.99998 2.58212 11.22 2.33545 12.5 2.33545C13.7766 2.33545 14.9966 2.58212 16.11 3.03545C16.95 3.36878 17.73 3.82212 18.4333 4.37545C18.62 4.51878 18.8033 4.67212 18.98 4.83545H18.9833C19.16 4.99545 19.33 5.16212 19.4933 5.33545C19.7433 5.59212 19.9733 5.86212 20.19 6.14878C20.26 6.24212 20.3333 6.33878 20.4 6.43545V6.43878C20.4 6.43878 20.4 6.43545 20.4033 6.43878C20.57 6.66878 20.7266 6.91212 20.8666 7.16212C20.9166 7.24545 20.9633 7.32878 21.01 7.41545C21.0666 7.51878 21.12 7.61878 21.1666 7.72212C21.2033 7.79212 21.2366 7.86212 21.27 7.93545C21.3233 8.04212 21.37 8.14878 21.4133 8.25545C21.4666 8.37545 21.5133 8.49545 21.5566 8.61878C21.5933 8.71212 21.6266 8.80545 21.6566 8.90212C21.6833 8.97878 21.71 9.05878 21.7366 9.14212C21.77 9.24878 21.8 9.35545 21.83 9.46212C21.85 9.53878 21.87 9.61212 21.8866 9.68878C21.9466 9.92545 21.9966 10.1621 22.0333 10.4054C22.0466 10.4754 22.0566 10.5454 22.0666 10.6188C22.0833 10.7254 22.0966 10.8354 22.1066 10.9421C22.1133 10.9888 22.12 11.0354 22.1233 11.0788C22.1333 11.1954 22.1433 11.3121 22.1466 11.4321C22.1533 11.4821 22.1566 11.5288 22.1566 11.5788C22.1633 11.7188 22.1666 11.8588 22.1666 12.0021Z" stroke="#5E6792" stroke-width="0.5" stroke-miterlimit="10" stroke-linecap="round" stroke-linejoin="round"/>
<path d="M12.5 4.90625V9.16892M15.4963 11.3323L19.4377 10.4446M14.3637 14.8746L16.3793 17.9732M10.6313 14.8709L8.61432 17.9732M9.50032 11.3419L5.55466 10.4599" stroke="#292E54" stroke-miterlimit="10" stroke-linecap="round" stroke-linejoin="round"/>
</svg>
